<svg width="239" height="77" viewBox="0 0 239 77" fill="none" xmlns="http://www.w3.org/2000/svg">
<rect x="164" y="8" width="75" height="61" fill="#DA3700"/>
<circle cx="203" cy="37" r="20" fill="black"/>
<circle cx="175" cy="18" r="6" fill="black"/>
<path d="M23.2128 57L11.9808 41.256L8.52481 45.336V57H4.92481V24.264H8.52481V40.824L22.3488 24.264H26.3328L14.0928 38.76L27.2928 57H23.2128ZM32.0891 57V34.536H35.3531V57H32.0891ZM33.7211 30.168C32.9851 30.168 32.3611 29.912 31.8491 29.4C31.3691 28.888 31.1291 28.264 31.1291 27.528C31.1291 26.824 31.3691 26.232 31.8491 25.752C32.3611 25.24 32.9851 24.984 33.7211 24.984C34.4251 24.984 35.0331 25.24 35.5451 25.752C36.0571 26.232 36.3131 26.84 36.3131 27.576C36.3131 28.28 36.0571 28.888 35.5451 29.4C35.0331 29.912 34.4251 30.168 33.7211 30.168ZM44.3568 57V37.512H40.5168V34.536H44.3568V27.096H47.6208V34.536H52.8048V37.512H47.6208V57H44.3568ZM66.1196 57.768C63.9436 57.768 62.0076 57.256 60.3116 56.232C58.6156 55.208 57.2876 53.784 56.3276 51.96C55.3676 50.136 54.8876 48.072 54.8876 45.768C54.8876 43.464 55.3516 41.4 56.2796 39.576C57.2396 37.752 58.5676 36.328 60.2636 35.304C61.9596 34.28 63.8796 33.768 66.0236 33.768C67.8476 33.768 69.4316 34.168 70.7756 34.968C72.1516 35.736 73.3996 36.84 74.5196 38.28L72.1196 40.152C70.5516 37.88 68.5196 36.744 66.0236 36.744C64.5196 36.744 63.1596 37.128 61.9436 37.896C60.7596 38.664 59.8316 39.736 59.1596 41.112C58.4876 42.488 58.1516 44.04 58.1516 45.768C58.1516 47.496 58.4876 49.048 59.1596 50.424C59.8316 51.8 60.7596 52.872 61.9436 53.64C63.1596 54.408 64.5196 54.792 66.0236 54.792C67.5596 54.792 68.8236 54.536 69.8156 54.024C70.8076 53.48 71.7036 52.696 72.5036 51.672L75.0476 53.448C73.9916 54.76 72.6796 55.816 71.1116 56.616C69.5756 57.384 67.9116 57.768 66.1196 57.768ZM89.9546 33.768C91.5226 33.768 92.9626 34.088 94.2746 34.728C95.6186 35.368 96.6746 36.312 97.4426 37.56C98.2426 38.808 98.6426 40.28 98.6426 41.976V57H95.3786V43.416C95.3786 38.968 93.3946 36.744 89.4266 36.744C87.1226 36.744 85.3946 37.56 84.2426 39.192C83.0906 40.824 82.5146 43.016 82.5146 45.768V57H79.2506V22.152H82.5146V38.28C83.2826 36.84 84.2906 35.736 85.5386 34.968C86.8186 34.168 88.2906 33.768 89.9546 33.768ZM114.587 33.768C116.603 33.768 118.427 34.264 120.059 35.256C121.691 36.248 122.971 37.608 123.899 39.336C124.827 41.032 125.291 42.936 125.291 45.048C125.291 45.656 125.275 46.12 125.243 46.44H106.763C106.891 48.744 107.643 50.712 109.019 52.344C110.395 53.976 112.267 54.792 114.635 54.792C116.555 54.792 118.139 54.44 119.387 53.736C120.667 53 121.691 51.992 122.459 50.712L125.051 52.44C123.995 54.104 122.603 55.416 120.875 56.376C119.147 57.304 117.099 57.768 114.731 57.768C112.555 57.768 110.619 57.256 108.923 56.232C107.227 55.208 105.899 53.784 104.939 51.96C103.979 50.136 103.499 48.072 103.499 45.768C103.499 43.464 103.963 41.4 104.891 39.576C105.851 37.752 107.163 36.328 108.827 35.304C110.523 34.28 112.443 33.768 114.587 33.768ZM122.027 43.752C121.707 41.416 120.923 39.672 119.675 38.52C118.427 37.336 116.731 36.744 114.587 36.744C112.507 36.744 110.795 37.416 109.451 38.76C108.139 40.072 107.307 41.736 106.955 43.752H122.027ZM140.814 33.768C142.382 33.768 143.822 34.088 145.134 34.728C146.478 35.368 147.534 36.312 148.302 37.56C149.102 38.808 149.502 40.28 149.502 41.976V57H146.238V43.416C146.238 38.968 144.254 36.744 140.286 36.744C137.982 36.744 136.254 37.56 135.102 39.192C133.95 40.824 133.374 43.016 133.374 45.768V57H130.11V34.536H133.374V38.28C134.142 36.84 135.15 35.736 136.398 34.968C137.678 34.168 139.15 33.768 140.814 33.768Z" fill="black"/>
<rect x="173" y="27" width="5" height="30" fill="black"/>
<rect x="209.49" y="37.7469" width="23" height="6" transform="rotate(45 209.49 37.7469)" fill="black"/>
</svg>
